<?xml version="1.0" ?><svg height="32" id="svg5" version="1.1" viewBox="0 0 32 32" width="32" xmlns="http://www.w3.org/2000/svg" xmlns:svg="http://www.w3.org/2000/svg"><defs id="defs2"/><g id="layer1" transform="translate(-300,-100)"><path d="m 316,102.01367 c -2.19729,0 -4,1.80271 -4,4 -10e-6,0.002 -10e-6,0.004 0,0.006 0.002,0.29773 0.0389,0.59285 0.10547,0.88086 C 309.08866,108.3562 307,111.44869 307,115.01367 v 6 c -1.6447,0 -3,1.3553 -3,3 0,1.64471 1.3553,3 3,3 h 18 c 1.6447,0 3,-1.35529 3,-3 0,-1.6447 -1.3553,-3 -3,-3 v -6 c 0,-3.56498 -2.08866,-6.65747 -5.10547,-8.11328 0.0671,-0.28809 0.10367,-0.58281 0.10547,-0.88086 10e-6,-0.002 10e-6,-0.004 0,-0.006 0,-2.19729 -1.80271,-4 -4,-4 z m 0,2 c 1.11575,0 1.99896,0.88257 2,1.99805 -6.7e-4,0.0753 -0.007,0.15028 -0.0156,0.22461 -0.63885,-0.14461 -1.30275,-0.22266 -1.98438,-0.22266 -0.68163,0 -1.34553,0.078 -1.98438,0.22266 -0.009,-0.0744 -0.015,-0.14919 -0.0156,-0.22461 10e-4,-1.11548 0.88425,-1.99805 2,-1.99805 z m 0,4 c 3.87783,0 7,3.12218 7,7 v 7 a 1.000105,1.000105 0 0 0 1,1 h 1 c 0.57127,0 1,0.42873 1,1 0,0.57127 -0.42873,1 -1,1 h -18 c -0.57127,0 -1,-0.42873 -1,-1 0,-0.57127 0.42873,-1 1,-1 h 1 a 1.000105,1.000105 0 0 0 1,-1 v -7 c 0,-3.87782 3.12217,-7 7,-7 z" id="path22520" style="color:#000000;fill:#002cba;fill-opacity:1;fill-rule:evenodd;stroke-linecap:round;stroke-linejoin:round;stroke-miterlimit:4.1;-inkscape-stroke:none"/><path d="m 311,128.01367 a 1,1 0 0 0 -1,1 1,1 0 0 0 1,1 h 10 a 1,1 0 0 0 1,-1 1,1 0 0 0 -1,-1 z" id="path22489" style="color:#000000;fill:#00c89f;fill-opacity:1;fill-rule:evenodd;stroke-linecap:round;stroke-linejoin:round;stroke-miterlimit:4.1;-inkscape-stroke:none"/><path d="m 324.57227,105.27539 a 1,1 0 0 0 -1.41211,0.0879 1,1 0 0 0 0.0879,1.41211 c 1.85845,1.63946 3.16702,3.8864 3.59765,6.41016 a 1,1 0 0 0 1.1543,0.8164 1,1 0 0 0 0.81641,-1.15234 c -0.51035,-2.9909 -2.05478,-5.64284 -4.24414,-7.57422 z" id="path22577" style="color:#000000;fill:#00c89f;fill-opacity:1;fill-rule:evenodd;stroke-linecap:round;stroke-linejoin:round;stroke-miterlimit:4.1;-inkscape-stroke:none"/><path d="m 308.16211,105.01953 a 1,1 0 0 0 -0.72461,0.24805 c -2.19473,1.93225 -3.74518,4.58812 -4.25586,7.58398 a 1,1 0 0 0 0.81836,1.15235 1,1 0 0 0 1.1543,-0.81641 c 0.43092,-2.52795 1.74062,-4.77982 3.60351,-6.41992 a 1,1 0 0 0 0.0899,-1.41016 1,1 0 0 0 -0.68555,-0.33789 z" id="rect22564" style="color:#000000;fill:#00c89f;fill-opacity:1;fill-rule:evenodd;stroke-linecap:round;stroke-linejoin:round;stroke-miterlimit:4.1;-inkscape-stroke:none"/></g></svg>