<?xml version="1.0" ?><svg height="32" id="svg5" version="1.1" viewBox="0 0 32 32" width="32" xmlns="http://www.w3.org/2000/svg" xmlns:svg="http://www.w3.org/2000/svg"><defs id="defs2"/><g id="layer1" transform="translate(-348,-100)"><path d="m 358,128.01367 c -0.55228,0 -1,0.44772 -1,1 0,0.55229 0.44772,1 1,1 h 10 c 0.55228,0 1,-0.44771 1,-1 0,-0.55228 -0.44772,-1 -1,-1 z" id="path4962" style="color:#000000;fill:#00c89f;fill-opacity:1;fill-rule:evenodd;stroke-linecap:round;stroke-linejoin:round;stroke-miterlimit:4.1;-inkscape-stroke:none"/><path d="m 374,102.01367 c -2.19729,0 -4,1.80271 -4,4 0,2.19729 1.80271,4 4,4 2.19729,0 4,-1.80271 4,-4 0,-2.19729 -1.80271,-4 -4,-4 z m 0,2 c 1.11641,0 2,0.88359 2,2 0,1.11641 -0.88359,2 -2,2 -1.11641,0 -2,-0.88359 -2,-2 0,-1.11641 0.88359,-2 2,-2 z" id="path4960" style="color:#000000;fill:#00c89f;fill-opacity:1;fill-rule:evenodd;stroke-linecap:round;stroke-linejoin:round;stroke-miterlimit:4.1;-inkscape-stroke:none"/><path d="m 359,106.01367 c -10e-6,0.002 -10e-6,0.004 0,0.006 0.002,0.29821 0.0426,0.59242 0.10938,0.88086 C 356.09084,108.35556 354,111.44742 354,115.01367 v 6 c -1.6447,0 -3,1.3553 -3,3 0,1.64471 1.3553,3 3,3 h 18 c 1.6447,0 3,-1.35529 3,-3 0,-1.6447 -1.3553,-3 -3,-3 v -6 c 0,-3.56625 -2.09084,-6.65811 -5.10938,-8.11328 0.0672,-0.28828 0.10758,-0.58261 0.10938,-0.88086 10e-6,-0.002 10e-6,-0.004 0,-0.006 0,-2.19729 -1.80271,-4 -4,-3.99993 -2.19729,7e-5 -4,1.80278 -4,4.00007 z m 6,-0.002 c -6.7e-4,0.0753 -0.007,0.15029 -0.0156,0.22461 -0.63885,-0.14461 -1.30275,-0.22266 -1.98438,-0.22266 -0.68163,0 -1.34553,0.078 -1.98438,0.22266 -0.009,-0.0745 -0.015,-0.14914 -0.0156,-0.22461 10e-4,-1.11548 0.88425,-1.99805 1.99998,-1.99805 1.11573,0 1.99894,0.88257 1.99998,1.99805 z m -2,2.00195 c 3.87783,0 7,3.12218 7,7 v 7 c 6e-5,0.55226 0.44774,0.99994 1,1 h 1 c 0.57127,0 1,0.42873 1,1 0,0.57127 -0.42873,1 -1,1 h -18 c -0.57127,0 -1,-0.42873 -1,-1 0,-0.57127 0.42873,-1 1,-1 h 1 c 0.55226,-6e-5 0.99994,-0.44774 1,-1 v -7 c 0,-3.87782 3.12217,-7 7,-7 z" id="circle24000" style="color:#000000;fill:#002cba;fill-opacity:1;fill-rule:evenodd;stroke-linecap:round;stroke-linejoin:round;stroke-miterlimit:4.1;-inkscape-stroke:none"/></g></svg>