<?xml version="1.0" ?>
<svg id="Icons" viewBox="0 0 24 24" xmlns="http://www.w3.org/2000/svg"
  xmlns:xlink="http://www.w3.org/1999/xlink">
  <defs>
    <style>
      .cls-1 {
        fill: url(#linear-gradient);
      }

      .cls-2 {
        fill: url(#linear-gradient-2);
      }

      .cls-3 {
        fill: url(#linear-gradient-3);
      }

      .cls-4 {
        fill: url(#linear-gradient-4);
      }

      .cls-5 {
        fill: #cffeff;
      }
    </style>
    <linearGradient gradientUnits="userSpaceOnUse" id="linear-gradient" x1="4.64" x2="4.64" y1="1.979" y2="8.542">
      <stop offset="0" stop-color="#ffaa39" />
      <stop offset="1" stop-color="#ff811a" />
    </linearGradient>
    <linearGradient id="linear-gradient-2" x1="19.36" x2="19.36" xlink:href="#linear-gradient" y1="1.979" y2="8.542" />
    <linearGradient gradientUnits="userSpaceOnUse" id="linear-gradient-3" x1="12" x2="12" y1="-0.16" y2="4.725">
      <stop offset="0" stop-color="#5d5c66" />
      <stop offset="1" stop-color="#48474f" />
    </linearGradient>
    <linearGradient gradientUnits="userSpaceOnUse" id="linear-gradient-4" x1="12" x2="12" y1="2.872" y2="23.172">
      <stop offset="0" stop-color="#a6f9ff" />
      <stop offset="1" stop-color="#3ed0f7" />
    </linearGradient>
  </defs>
  <path class="cls-1" d="M2.72,9.28A4,4,0,1,1,8.28,3.72Z" />
  <path class="cls-2" d="M21.28,9.28a4,4,0,1,0-5.56-5.56Z" />
  <path class="cls-3" d="M12,5a1,1,0,0,1-1-1V1a1,1,0,0,1,2,0V4A1,1,0,0,1,12,5Z" />
  <circle class="cls-4" cx="12" cy="13" r="10" />
  <path class="cls-5"
    d="M9,17a1,1,0,0,1-.707-1.707L11,12.586V7a1,1,0,0,1,2,0v6a1,1,0,0,1-.293.707l-3,3A1,1,0,0,1,9,17Z" />
</svg>
