<?xml version="1.0" ?>
<svg enable-background="new 0 0 64 64" id="Filled_Outline_1_" version="1.1" viewBox="0 0 64 64"
  xml:space="preserve" xmlns="http://www.w3.org/2000/svg" xmlns:xlink="http://www.w3.org/1999/xlink">
  <title />
  <desc />
  <g>
    <g>
      <path
        d="M32,21v-6c0-6.627,5.373-12,12-12h8v6c0,6.627-5.373,12-12,12H32z M24,21h8v-6c0-6.627-5.373-12-12-12h-8    v6C12,15.627,17.373,21,24,21z"
        fill="#009245" />
      <path
        d="M52,3v6c0,0.08,0,0.16-0.01,0.24c-0.04,0.05-0.09,0.1-0.14,0.15c-2.35,2.36-5.21,3.32-6.39,2.15    c-1.17-1.18-0.21-4.04,2.15-6.39c0.97-0.97,2.03-1.71,3.02-2.15H52z M12,3v6c0,0.08,0,0.16,0.01,0.24    c0.04,0.05,0.09,0.1,0.14,0.15c2.35,2.36,5.21,3.32,6.39,2.15c1.17-1.18,0.21-4.04-2.15-6.39C15.42,4.18,14.36,3.44,13.37,3H12z"
        fill="#39B54A" />
      <path
        d="M55,29c0-8.284-6.716-15-15-15c-2.945,0-5.683,0.861-8,2.327C29.683,14.861,26.945,14,24,14    c-8.284,0-15,6.716-15,15c0,4.503,1.994,8.531,5.135,11.281C13.407,42.044,13,43.974,13,46c0,8.284,6.716,15,15,15s15-6.716,15-15    c0-0.775-0.077-1.529-0.19-2.272C49.75,42.411,55,36.323,55,29z"
        fill="#603F96" />
      <path d="M38,21c0-2,2.163-5.612,7-4c6,2,6,9,4,11c-3.162,3.162-2-3-5-4C41.879,23.293,38,25.123,38,21z"
        fill="#705CB2" />
      <path
        d="M41.59,43.91C39.87,44.62,37.98,45,36,45c-7.38,0-13.53-5.35-14.77-12.38c1.22-0.63,2.55-1.09,3.94-1.35    C26.27,38.48,32.49,44,40,44C40.54,44,41.07,43.97,41.59,43.91z M26,53l4,2l-1-4l2-3l-3-1l-2-2l-2,2l-3,1l2,3l-1,4L26,53z     M42.83,43.73C41.92,43.91,40.97,44,40,44c-0.34,0-0.67-0.01-1-0.04V44c0,8.28-6.72,15-15,15c-1.61,0-3.16-0.25-4.62-0.73    C21.81,59.99,24.79,61,28,61c8.28,0,15-6.72,15-15C43,45.22,42.94,44.47,42.83,43.73z M39,37l4,2l-1-4l2-3l-3-1l-2-2l-2,2l-3,1    l2,3l-1,4L39,37z M54.79,26.5C53.6,33.59,47.43,39,40,39s-13.6-5.41-14.79-12.5C25.07,27.31,25,28.15,25,29c0,8.28,6.72,15,15,15    s15-6.72,15-15C55,28.15,54.93,27.31,54.79,26.5z M32,16.32c-0.64-0.41-1.31-0.76-2.01-1.06c-5.15,2.26-8.8,7.33-8.98,13.28    c-3.05,0.84-5.71,2.62-7.65,5.01c-0.8-0.79-1.49-1.66-2.08-2.61c-0.94-1.5-1.62-3.17-1.98-4.96C9.1,26.95,9,27.96,9,29    c0,4.5,1.99,8.55,5.14,11.29c1.89-4.61,6.02-8.07,11.03-9.02C25.06,30.53,25,29.77,25,29C25,23.66,27.79,18.97,32,16.32z"
        fill="#3E2F6F" />
    </g>
    <g>
      <path
        d="M26.503,25.267l-1.928-0.533c-0.192,0.697-0.339,1.415-0.435,2.135l1.982,0.264    C26.207,26.502,26.335,25.875,26.503,25.267z"
        fill="#28284B" />
      <path
        d="M56,29c0-8.739-7.045-15.853-15.753-15.987c1.474-1.453,2.98-2.785,4.509-4.013H49V7h-1.595    C48.591,6.165,49.79,5.399,51,4.702V9c0,1.935-0.509,3.836-1.471,5.499l1.73,1.002C52.398,13.534,53,11.286,53,9V3    c0-0.552-0.447-1-1-1h-8c-5.4,0-10.039,3.311-12,8.008C30.039,5.311,25.4,2,20,2h-8c-0.553,0-1,0.448-1,1v6    c0,2.286,0.602,4.534,1.74,6.501l1.73-1.002C13.509,12.836,13,10.935,13,9V4.702C14.21,5.399,15.409,6.165,16.595,7H15v2h4.244    c1.529,1.228,3.035,2.559,4.509,4.013C15.045,13.147,8,20.261,8,29c0,3.495,1.106,6.815,3.2,9.602l1.6-1.201    C10.968,34.963,10,32.058,10,29c0-7.72,6.28-14,14-14c2.137,0,4.226,0.492,6.125,1.417c-2.043,1.602-3.71,3.703-4.793,6.182    l1.832,0.801C29.394,18.297,34.432,15,40,15c7.72,0,14,6.28,14,14s-6.28,14-14,14s-14-6.28-14-14h-2    c0,0.507,0.03,1.006,0.076,1.501C17.039,32.279,12,38.671,12,46c0,8.822,7.178,16,16,16c8.4,0,15.413-6.56,15.965-14.934    l-1.996-0.132C41.486,54.261,35.351,60,28,60c-7.72,0-14-6.28-14-14c0-6.353,4.326-11.904,10.393-13.519    C25.988,39.633,32.374,45,40,45C48.822,45,56,37.822,56,29z M44,4h4.301c-1.436,0.91-2.856,1.906-4.253,3H44v0.039    c-0.672,0.527-1.338,1.08-2,1.649V7h-2v3.489c-0.94,0.882-1.871,1.798-2.787,2.765c-1.467,0.259-2.876,0.716-4.193,1.355    C33.228,8.726,38.066,4,44,4z M15.699,4H20c5.934,0,10.772,4.726,10.98,10.61c-1.33-0.645-2.739-1.101-4.194-1.357    C25.87,12.286,24.94,11.371,24,10.489V7h-2v1.688c-0.662-0.569-1.328-1.122-2-1.649V7h-0.048C18.554,5.906,17.135,4.91,15.699,4z"
        fill="#28284B" />
      <path
        d="M31.946,47.675c-0.102-0.294-0.334-0.525-0.63-0.624l-2.776-0.925l-1.833-1.833    c-0.391-0.391-1.023-0.391-1.414,0l-1.833,1.833l-2.776,0.925c-0.296,0.099-0.528,0.33-0.63,0.624    c-0.101,0.295-0.059,0.62,0.114,0.879l1.755,2.632l-0.893,3.571c-0.095,0.379,0.039,0.778,0.344,1.023    c0.306,0.245,0.725,0.288,1.073,0.114L26,54.118l3.553,1.776C29.694,55.965,29.848,56,30,56c0.223,0,0.444-0.075,0.626-0.22    c0.305-0.245,0.438-0.644,0.344-1.023l-0.893-3.571l1.755-2.632C32.005,48.295,32.047,47.97,31.946,47.675z M28.03,51.243    l0.473,1.891l-2.056-1.028C26.307,52.035,26.153,52,26,52s-0.307,0.035-0.447,0.105l-2.056,1.028l0.473-1.891    c0.068-0.273,0.019-0.563-0.138-0.797l-1.273-1.911l1.758-0.586c0.147-0.049,0.281-0.132,0.391-0.242L26,46.414l1.293,1.293    c0.109,0.11,0.243,0.192,0.391,0.242l1.758,0.586l-1.273,1.911C28.012,50.68,27.962,50.969,28.03,51.243z"
        fill="#28284B" />
      <path
        d="M44.946,31.675c-0.102-0.294-0.334-0.525-0.63-0.624l-2.776-0.925l-1.833-1.833    c-0.391-0.391-1.023-0.391-1.414,0l-1.833,1.833l-2.776,0.925c-0.296,0.099-0.528,0.33-0.63,0.624    c-0.101,0.295-0.059,0.62,0.114,0.879l1.755,2.632l-0.893,3.571c-0.095,0.379,0.039,0.778,0.344,1.023    c0.306,0.245,0.725,0.288,1.073,0.114L39,38.118l3.553,1.776C42.694,39.965,42.848,40,43,40c0.223,0,0.444-0.075,0.626-0.22    c0.305-0.245,0.438-0.644,0.344-1.023l-0.893-3.571l1.755-2.632C45.005,32.295,45.047,31.97,44.946,31.675z M41.03,35.243    l0.473,1.891l-2.056-1.028C39.307,36.035,39.153,36,39,36s-0.307,0.035-0.447,0.105l-2.056,1.028l0.473-1.891    c0.068-0.273,0.019-0.563-0.138-0.797l-1.273-1.911l1.758-0.586c0.147-0.049,0.281-0.132,0.391-0.242L39,30.414l1.293,1.293    c0.109,0.11,0.243,0.192,0.391,0.242l1.758,0.586l-1.273,1.911C41.012,34.68,40.962,34.969,41.03,35.243z"
        fill="#28284B" />
    </g>
  </g>
</svg>